<?xml version="1.0" encoding="UTF-8"?>
<svg id="icon-0" xmlns="http://www.w3.org/2000/svg" viewBox="0 0 1996.89 515.31">
  <defs>
    <style>
      .cls-1 {
        fill: #032559;
      }

      .cls-1, .cls-2 {
        stroke-width: 0px;
      }

      .cls-2 {
        fill: #1890ff;
      }
    </style>
  </defs>
  <g id="tight-bounds">
    <g>
      <g id="textblocktransform">
        <path id="text-0" class="cls-1" d="M566.69,245.23v-125.21h22.38v125.21h-22.38ZM566.21,97.17v-24.04h22.85v24.04h-22.85ZM618.82,245.23V73.12h22.38v102.36l38.8-55.46h24.52l-37.13,51.18,39.04,74.03h-25.23l-27.61-55.46-12.38,14.04v41.42h-22.38ZM745.22,248.08c-8.25,0-15.71-2.59-22.38-7.76-6.67-5.14-10-14.3-10-27.47h0c0-16.03,5.43-27.14,16.28-33.33,10.89-6.19,26.41-9.28,46.56-9.28h0v-15c0-6.03-1.27-10.68-3.81-13.95-2.54-3.24-7.14-4.86-13.81-4.86h0c-6.35,0-10.92,1.7-13.71,5.09-2.76,3.43-4.14,7.6-4.14,12.52h0v3.09h-22.14c-.16-.95-.24-2.7-.24-5.24h0c0-10.95,3.73-19.49,11.19-25.61,7.46-6.09,17.38-9.14,29.76-9.14h0c13.01,0,22.8,3.09,29.37,9.28,6.6,6.19,9.9,15,9.9,26.42h0v67.37c0,2.7.63,4.76,1.9,6.19,1.27,1.43,2.86,2.14,4.76,2.14h7.14v15.71c-3.49,2.06-8.17,3.09-14.04,3.09h0c-5.24,0-9.7-1.4-13.38-4.19-3.62-2.76-6.06-6.6-7.33-11.52h-1.19c-7.14,10.95-17.38,16.42-30.71,16.42h0ZM752.12,228.57c6.51,0,12.06-2.7,16.66-8.09,4.6-5.4,6.9-12.62,6.9-21.66h0v-10c-12.7,0-22.5,1.59-29.42,4.76-6.89,3.17-10.33,9.05-10.33,17.62h0c0,6.19,1.3,10.63,3.9,13.33,2.63,2.7,6.73,4.05,12.28,4.05h0ZM820.15,245.23v-10.24l53.08-95.45h-49.51v-19.52h80.22v10l-53.32,95.69h55.94v19.52h-86.41ZM928.23,245.23v-125.21h22.38v125.21h-22.38ZM927.75,97.17v-24.04h22.85v24.04h-22.85ZM980.36,245.23v-125.21h17.62l2.86,14.76h1.43c3.33-5.71,7.62-10.08,12.85-13.09,5.24-3.02,11.19-4.52,17.85-4.52h0c21.11,0,31.66,12.85,31.66,38.56h0v89.5h-22.38v-85.93c0-8.09-1.48-13.81-4.43-17.14-2.92-3.33-7.24-5-12.95-5h0c-6.19,0-11.43,2.89-15.71,8.66-4.28,5.81-6.43,13.39-6.43,22.76h0v76.65h-22.38ZM1092.24,148.35l-5.24-31.42v-34.99h22.38v34.99l-5,31.42h-12.14ZM1168.36,248.08c-13.65,0-24.04-3.57-31.18-10.71-7.14-7.14-10.71-16.11-10.71-26.9h0c0-1.75.05-2.9.14-3.48.06-.54.1-.89.1-1.05h23.09v2.14c.16,7.14,2.03,12.41,5.62,15.81,3.55,3.43,8.19,5.14,13.9,5.14h0c5.08,0,9.36-1.48,12.85-4.43,3.49-2.92,5.24-7.16,5.24-12.71h0c0-4.13-1.06-7.51-3.19-10.14-2.16-2.6-4.82-4.67-8-6.19-3.17-1.49-7.54-3.19-13.09-5.09h0c-7.3-2.38-13.2-4.73-17.71-7.05-4.54-2.29-8.39-5.86-11.57-10.71-3.17-4.82-4.76-11.2-4.76-19.14h0c0-11.43,3.73-20.36,11.19-26.8,7.46-6.41,17.3-9.62,29.52-9.62h0c11.58,0,20.84,3.21,27.76,9.62,6.89,6.44,10.33,14.66,10.33,24.66h0l-.24,4.76h-23.09v-1.67c0-5.4-1.3-9.81-3.9-13.24-2.63-3.4-6.73-5.09-12.28-5.09h0c-5.71,0-9.87,1.59-12.47,4.76-2.63,3.17-3.95,6.82-3.95,10.95h0c0,5.08,1.87,8.84,5.62,11.28,3.71,2.48,9.46,4.9,17.23,7.28h0c7.62,2.38,13.77,4.76,18.47,7.14,4.67,2.38,8.71,6.06,12.14,11.05,3.4,5.01,5.09,11.73,5.09,20.14h0c0,13.33-3.81,23.2-11.43,29.61-7.62,6.44-17.85,9.66-30.71,9.66h0ZM1287.86,286.41V120.02h17.62l2.86,14.76h1.19c3.02-5.71,6.9-10.08,11.66-13.09,4.76-3.02,10.08-4.52,15.95-4.52h0c12.38,0,22.01,5.4,28.9,16.19,6.92,10.79,10.38,27.3,10.38,49.51h0c0,21.74-3.49,38.04-10.47,48.89-6.98,10.89-16.11,16.33-27.37,16.33h0c-6.19,0-11.71-1.32-16.57-3.95-4.82-2.6-8.35-6.13-10.57-10.57h-1.19v52.85h-22.38ZM1331.66,228.09c7.3,0,12.7-3.3,16.19-9.9,3.49-6.57,5.24-16.92,5.24-31.04h0v-9.05c0-14.12-1.75-24.49-5.24-31.09-3.49-6.57-8.89-9.85-16.19-9.85h0c-14.28,0-21.42,13.65-21.42,40.94h0v8.81c0,27.45,7.14,41.18,21.42,41.18h0ZM1441.87,248.08c-15.39,0-26.98-5.36-34.75-16.09-7.78-10.7-11.66-27.15-11.66-49.37h0c0-22.22,3.89-38.69,11.66-49.42,7.78-10.7,19.36-16.04,34.75-16.04h0c15.55,0,27.17,5.35,34.85,16.04,7.71,10.73,11.57,27.2,11.57,49.42h0c0,22.22-3.86,38.67-11.57,49.37-7.68,10.73-19.3,16.09-34.85,16.09h0ZM1441.87,228.57c15.39,0,23.09-13.81,23.09-41.42h0v-9.05c0-27.61-7.7-41.42-23.09-41.42h0c-7.78,0-13.54,3.44-17.28,10.33-3.71,6.92-5.57,17.28-5.57,31.09h0v9.05c0,13.81,1.86,24.15,5.57,31.04,3.75,6.92,9.51,10.38,17.28,10.38h0ZM1511.57,245.23v-125.21h17.62l2.86,17.14h1.43c4.44-13.33,11.58-20,21.42-20h0c3.81,0,7.14.63,10,1.9h0v22.61h-7.62c-6.82,0-12.41,2.3-16.76,6.9-4.38,4.6-6.57,12.06-6.57,22.38h0v74.27h-22.38ZM1605.12,247.85c-8.73,0-15-2.94-18.81-8.81-3.81-5.87-5.71-13.09-5.71-21.66h0v-77.84h-11.43v-19.52h11.43l4.28-34.99h18.09v34.99h17.38v19.52h-17.38v78.08c0,3.49.92,6.19,2.76,8.09,1.81,1.9,4.46,2.86,7.95,2.86h6.67v15.95c-1.75.95-4.08,1.75-7,2.38-2.95.63-5.7.95-8.24.95h0ZM1637.5,245.23v-105.69h-11.43v-19.52h11.43v-18.57c0-8.57,2.06-15.76,6.19-21.57,4.13-5.78,10.87-8.66,20.23-8.66h0c2.86,0,5.9.27,9.14.81,3.27.57,6.09,1.25,8.47,2.05h0v15.95h-10.71c-7.3,0-10.95,3.73-10.95,11.19h0v18.81h21.66v19.52h-21.66v105.69h-22.38ZM1737.47,248.08c-15.39,0-26.98-5.36-34.75-16.09-7.78-10.7-11.66-27.15-11.66-49.37h0c0-22.22,3.89-38.69,11.66-49.42,7.78-10.7,19.36-16.04,34.75-16.04h0c15.55,0,27.17,5.35,34.85,16.04,7.71,10.73,11.57,27.2,11.57,49.42h0c0,22.22-3.86,38.67-11.57,49.37-7.68,10.73-19.3,16.09-34.85,16.09h0ZM1737.47,228.57c15.39,0,23.09-13.81,23.09-41.42h0v-9.05c0-27.61-7.7-41.42-23.09-41.42h0c-7.78,0-13.54,3.44-17.28,10.33-3.71,6.92-5.57,17.28-5.57,31.09h0v9.05c0,13.81,1.86,24.15,5.57,31.04,3.75,6.92,9.51,10.38,17.28,10.38h0ZM1805.51,245.23V73.12h22.38v172.1h-22.38ZM1856.21,245.23v-125.21h22.38v125.21h-22.38ZM1855.73,97.17v-24.04h22.85v24.04h-22.85ZM1950.47,248.08c-15.39,0-26.98-5.36-34.75-16.09-7.78-10.7-11.66-27.15-11.66-49.37h0c0-22.22,3.89-38.69,11.66-49.42,7.78-10.7,19.36-16.04,34.75-16.04h0c15.55,0,27.17,5.35,34.85,16.04,7.71,10.73,11.57,27.2,11.57,49.42h0c0,22.22-3.86,38.67-11.57,49.37-7.68,10.73-19.3,16.09-34.85,16.09h0ZM1950.47,228.57c15.39,0,23.09-13.81,23.09-41.42h0v-9.05c0-27.61-7.7-41.42-23.09-41.42h0c-7.78,0-13.54,3.44-17.28,10.33-3.71,6.92-5.57,17.28-5.57,31.09h0v9.05c0,13.81,1.86,24.15,5.57,31.04,3.75,6.92,9.51,10.38,17.28,10.38h0Z"/>
        <path id="text-1" class="cls-1" d="M616.47,345.97h18.07l-25.3,59.49v36.55h-17.79v-36.42l-25.3-59.63h18.76l15.71,45.17,15.85-45.17ZM692.22,368.48v73.53h-14.87l-.83-9.31c-2.32,3.8-4.91,6.64-7.78,8.53-2.87,1.91-6.21,2.86-10.01,2.86h0c-5.37,0-9.62-1.9-12.73-5.7-3.09-3.8-4.64-8.76-4.64-14.87h0v-55.04h17.1v54.07c0,5.74,1.95,8.62,5.84,8.62h0c2.22,0,4.22-.86,5.98-2.59,1.76-1.7,3.38-4.13,4.86-7.28h0v-52.82h17.1ZM728.5,366.54c8.71,0,16.08,2.87,22.1,8.62h0l-6.53,9.31c-2.59-1.85-5.05-3.24-7.37-4.17-2.32-.93-4.68-1.39-7.09-1.39h0c-2.69,0-4.8.71-6.34,2.14-1.52,1.45-2.28,3.42-2.28,5.92h0c0,2.5.85,4.51,2.56,6.03,1.72,1.54,5.18,3.33,10.37,5.37h0c6.39,2.5,11.12,5.47,14.18,8.9s4.59,8.02,4.59,13.76h0c0,7.13-2.5,12.76-7.51,16.87-5,4.13-11.35,6.2-19.04,6.2h0c-5,0-9.62-.91-13.84-2.72-4.21-1.8-7.89-4.32-11.04-7.56h0l8.34-9.17c5.19,4.54,10.47,6.81,15.85,6.81h0c3.06,0,5.47-.81,7.23-2.42,1.76-1.63,2.64-3.88,2.64-6.75h0c0-2.13-.37-3.86-1.11-5.2-.74-1.35-2.04-2.61-3.89-3.78-1.85-1.15-4.63-2.42-8.34-3.81h0c-6.39-2.5-10.96-5.42-13.7-8.76-2.72-3.34-4.09-7.6-4.09-12.79h0c0-6.21,2.2-11.33,6.59-15.37,4.41-4.02,10.32-6.03,17.74-6.03h0ZM813.81,368.48v73.53h-14.87l-.83-9.31c-2.32,3.8-4.91,6.64-7.78,8.53-2.87,1.91-6.21,2.86-10.01,2.86h0c-5.37,0-9.61-1.9-12.7-5.7-3.11-3.8-4.67-8.76-4.67-14.87h0v-55.04h17.1v54.07c0,5.74,1.95,8.62,5.84,8.62h0c2.22,0,4.22-.86,5.98-2.59,1.76-1.7,3.38-4.13,4.86-7.28h0v-52.82h17.1ZM829.66,339.02l17.1-1.81v104.8h-17.1v-102.99ZM867.19,368.48h16.68l-19.46,32.52,21.13,41h-18.35l-19.74-40.17,19.74-33.36ZM945.02,403.51c0,.83-.14,3.2-.42,7.09h-37.94c.37,7.6,1.69,12.9,3.95,15.9,2.28,3.02,5.5,4.53,9.67,4.53h0c2.87,0,5.47-.49,7.78-1.47,2.32-.96,4.82-2.51,7.51-4.64h0l7.09,9.73c-6.49,6.3-14.27,9.45-23.35,9.45h0c-9.64,0-17.03-3.34-22.18-10.01-5.13-6.67-7.7-16.08-7.7-28.22h0c0-12.14,2.46-21.73,7.37-28.77,4.91-7.04,11.86-10.56,20.85-10.56h0c8.62,0,15.34,3.12,20.15,9.37,4.82,6.26,7.23,15.47,7.23,27.6h0ZM928.34,399.48v-.97c0-6.95-.83-12.03-2.5-15.23-1.67-3.19-4.36-4.78-8.06-4.78h0c-3.43,0-6.05,1.55-7.87,4.64-1.8,3.11-2.88,8.56-3.25,16.35h21.68ZM984.74,345.97h17.65v96.04h-17.65v-96.04ZM1029.5,345.97h17.93l-26.13,43.5,28.22,52.54h-19.46l-26.96-51.29,26.41-44.76ZM1082.59,366.54c9.27,0,16.48,3.24,21.63,9.73,5.13,6.49,7.7,16.12,7.7,28.91h0c0,12.23-2.59,21.78-7.78,28.63-5.19,6.86-12.37,10.29-21.54,10.29h0c-9.17,0-16.35-3.36-21.54-10.09-5.19-6.71-7.78-16.32-7.78-28.83h0c0-12.42,2.59-21.96,7.78-28.63s12.37-10.01,21.54-10.01h0ZM1082.59,379.46c-3.98,0-6.9,1.96-8.76,5.89-1.85,3.95-2.78,10.55-2.78,19.82h0c0,9.36.93,16,2.78,19.93,1.85,3.95,4.77,5.92,8.76,5.92h0c3.98,0,6.9-1.97,8.76-5.92,1.85-3.93,2.78-10.57,2.78-19.93h0c0-9.36-.93-15.98-2.78-19.88-1.85-3.89-4.77-5.84-8.76-5.84h0ZM1158.9,366.54c5.28,0,9.45,1.9,12.51,5.7,3.06,3.8,4.59,8.9,4.59,15.29h0v54.48h-17.1v-52.54c0-3.52-.49-6.05-1.47-7.59-.96-1.52-2.37-2.28-4.23-2.28h0c-3.89,0-7.74,3.66-11.54,10.98h0v51.43h-17.1v-73.53h14.87l1.25,9.59c2.5-3.89,5.16-6.79,7.98-8.7,2.84-1.89,6.25-2.84,10.23-2.84h0ZM1241.88,368.48v73.53h-14.87l-.83-9.31c-2.32,3.8-4.91,6.64-7.78,8.53-2.87,1.91-6.21,2.86-10.01,2.86h0c-5.37,0-9.62-1.9-12.73-5.7-3.09-3.8-4.64-8.76-4.64-14.87h0v-55.04h17.1v54.07c0,5.74,1.95,8.62,5.84,8.62h0c2.22,0,4.22-.86,5.98-2.59,1.76-1.7,3.38-4.13,4.86-7.28h0v-52.82h17.1ZM1323.44,366.54c4.91,0,8.85,1.9,11.81,5.7,2.97,3.8,4.45,8.9,4.45,15.29h0v54.48h-16.82v-52.68c0-3.52-.46-6.05-1.39-7.59-.93-1.52-2.27-2.28-4.03-2.28h0c-3.61,0-7.09,3.43-10.42,10.29h0v52.26h-16.68v-52.68c0-6.58-1.76-9.87-5.28-9.87h0c-3.8,0-7.32,3.43-10.56,10.29h0v52.26h-16.82v-73.53h14.87l1.11,9.45c4.82-7.6,10.61-11.4,17.37-11.4h0c3.43,0,6.39,1.07,8.9,3.2,2.5,2.13,4.4,5.14,5.7,9.03h0c4.91-8.15,10.84-12.23,17.79-12.23h0ZM1401.97,424.22c0,2.41.32,4.19.97,5.34.65,1.17,1.71,2.12,3.2,2.86h0l-3.47,11.4c-3.8-.46-6.83-1.48-9.09-3.06-2.28-1.58-3.98-3.98-5.09-7.23h0c-4.26,7.04-10.24,10.56-17.93,10.56h0c-6.12,0-10.98-2.07-14.59-6.2-3.61-4.11-5.42-9.6-5.42-16.46h0c0-7.97,2.48-14.04,7.45-18.21,4.95-4.17,12.15-6.25,21.6-6.25h5.7v-5.14c0-4.63-.81-7.9-2.42-9.81-1.63-1.89-4.25-2.84-7.87-2.84h0c-4.36,0-9.78,1.2-16.26,3.61h0l-3.89-11.12c3.71-1.67,7.55-2.95,11.54-3.84,3.98-.87,7.78-1.31,11.4-1.31h0c16.12,0,24.18,8.15,24.18,24.46h0v33.22ZM1375.14,431.73c4.45,0,7.83-3.06,10.15-9.17h0v-15.43h-4.03c-4.73,0-8.17,1.07-10.34,3.2-2.19,2.13-3.28,5.42-3.28,9.87h0c0,3.8.65,6.67,1.95,8.62,1.3,1.95,3.15,2.92,5.56,2.92h0Z"/>
      </g>
      <g>
        <rect class="cls-2" width="231.89" height="231.89"/>
        <rect class="cls-2" x="283.42" width="231.89" height="231.89"/>
        <rect class="cls-2" y="283.42" width="231.89" height="231.89"/>
        <rect class="cls-2" x="283.42" y="283.42" width="231.89" height="231.89"/>
      </g>
    </g>
  </g>
</svg>